# Wavefront OBJ file
# Exported by Misfit Model 3D 1.2.4
# Fri Dec 25 10:53:26 2015

mtllib prize_machine_top.mtl

# 24 Vertices
v 1.92 4.8 -2.0
v -1.92 4.8 -2.0
v -1.92 4.8 2.0
v 1.92 4.8 2.0
v 1.92 0.0 2.0
v -1.92 0.0 2.0
v -1.92 0.0 -2.0
v 1.92 0.0 -2.0
v 1.92 4.8 -2.0
v 1.92 4.8 2.0
v 1.92 0.0 2.0
v 1.92 0.0 -2.0
v -1.92 0.0 -2.0
v -1.92 0.0 2.0
v -1.92 4.8 2.0
v -1.92 4.8 -2.0
v 1.92 0.0 -2.0
v -1.92 0.0 -2.0
v -1.92 4.8 -2.0
v 1.92 4.8 -2.0
v 1.92 4.8 2.0
v -1.92 4.8 2.0
v -1.92 0.0 2.0
v 1.92 0.0 2.0

# 36 Texture Coordinates
vt 0.007813 0.257813
vt 0.195313 0.257813
vt 0.195313 0.453125
vt 0.007813 0.257813
vt 0.195313 0.453125
vt 0.007813 0.453125
vt 0.210938 0.257813
vt 0.398438 0.257813
vt 0.398438 0.453125
vt 0.210938 0.257813
vt 0.398438 0.453125
vt 0.210938 0.453125
vt 0.21875 0.007813
vt 0.414063 0.007813
vt 0.414063 0.242188
vt 0.21875 0.007813
vt 0.414063 0.242188
vt 0.21875 0.242188
vt 0.007813 0.007813
vt 0.203125 0.007813
vt 0.203125 0.242188
vt 0.007813 0.007813
vt 0.203125 0.242188
vt 0.007813 0.242188
vt 0.632813 0.007813
vt 0.820313 0.007813
vt 0.820313 0.242188
vt 0.632813 0.007813
vt 0.820313 0.242188
vt 0.632813 0.242188
vt 0.429688 0.007813
vt 0.617188 0.007813
vt 0.617188 0.242188
vt 0.429688 0.007813
vt 0.617188 0.242188
vt 0.429688 0.242188

# 36 Vertex Normals
vn 0.0 1.0 0.0
vn 0.0 1.0 0.0
vn 0.0 1.0 0.0
vn 0.0 1.0 0.0
vn 0.0 1.0 0.0
vn 0.0 1.0 0.0
vn 0.0 -1.0 0.0
vn 0.0 -1.0 0.0
vn 0.0 -1.0 0.0
vn 0.0 -1.0 0.0
vn 0.0 -1.0 0.0
vn 0.0 -1.0 0.0
vn 1.0 0.0 0.0
vn 1.0 0.0 0.0
vn 1.0 0.0 0.0
vn 1.0 0.0 0.0
vn 1.0 0.0 0.0
vn 1.0 0.0 -0.0
vn -1.0 0.0 0.0
vn -1.0 0.0 0.0
vn -1.0 0.0 0.0
vn -1.0 0.0 0.0
vn -1.0 0.0 0.0
vn -1.0 0.0 -0.0
vn 0.0 0.0 -1.0
vn 0.0 0.0 -1.0
vn 0.0 0.0 -1.0
vn 0.0 0.0 -1.0
vn 0.0 0.0 -1.0
vn 0.0 0.0 -1.0
vn 0.0 0.0 1.0
vn 0.0 0.0 1.0
vn 0.0 0.0 1.0
vn 0.0 0.0 1.0
vn 0.0 0.0 1.0
vn 0.0 0.0 1.0

# prize_machine_top, 12 grouped triangles

usemtl prize_machine_top-tex.tex
o prize_machine_top
g prize_machine_top

f 1/1/1 2/2/2 3/3/3
f 1/4/4 3/5/5 4/6/6
f 5/7/7 6/8/8 7/9/9
f 5/10/10 7/11/11 8/12/12
f 9/13/13 10/14/14 11/15/15
f 9/16/16 11/17/17 12/18/18
f 13/19/19 14/20/20 15/21/21
f 13/22/22 15/23/23 16/24/24
f 17/25/25 18/26/26 19/27/27
f 17/28/28 19/29/29 20/30/30
f 21/31/31 22/32/32 23/33/33
f 21/34/34 23/35/35 24/36/36
