# Wavefront OBJ file
# Exported by Misfit Model 3D 1.2.4
# Fri Dec 25 10:45:50 2015

mtllib prize_ball.mtl

# 24 Vertices
v 0.72 1.44 -0.72
v -0.72 1.44 -0.72
v -0.72 1.44 0.72
v 0.72 1.44 0.72
v 0.72 0.0 0.72
v -0.72 0.0 0.72
v -0.72 0.0 -0.72
v 0.72 0.0 -0.72
v 0.72 1.44 -0.72
v 0.72 1.44 0.72
v 0.72 0.0 0.72
v 0.72 0.0 -0.72
v -0.72 0.0 -0.72
v -0.72 0.0 0.72
v -0.72 1.44 0.72
v -0.72 1.44 -0.72
v 0.72 0.0 -0.72
v -0.72 0.0 -0.72
v -0.72 1.44 -0.72
v 0.72 1.44 -0.72
v 0.72 1.44 0.72
v -0.72 1.44 0.72
v -0.72 0.0 0.72
v 0.72 0.0 0.72

# 36 Texture Coordinates
vt 0.359375 0.03125
vt 0.5 0.03125
vt 0.5 0.3125
vt 0.359375 0.03125
vt 0.5 0.3125
vt 0.359375 0.3125
vt 0.1875 0.03125
vt 0.328125 0.03125
vt 0.328125 0.3125
vt 0.1875 0.03125
vt 0.328125 0.3125
vt 0.1875 0.3125
vt 0.015625 0.03125
vt 0.15625 0.03125
vt 0.15625 0.3125
vt 0.015625 0.03125
vt 0.15625 0.3125
vt 0.015625 0.3125
vt 0.015625 0.375
vt 0.15625 0.375
vt 0.15625 0.65625
vt 0.015625 0.375
vt 0.15625 0.65625
vt 0.015625 0.65625
vt 0.703125 0.03125
vt 0.84375 0.03125
vt 0.84375 0.3125
vt 0.703125 0.03125
vt 0.84375 0.3125
vt 0.703125 0.3125
vt 0.53125 0.03125
vt 0.671875 0.03125
vt 0.671875 0.3125
vt 0.53125 0.03125
vt 0.671875 0.3125
vt 0.53125 0.3125

# 36 Vertex Normals
vn 0.0 1.0 0.0
vn 0.0 1.0 0.0
vn 0.0 1.0 0.0
vn 0.0 1.0 0.0
vn 0.0 1.0 0.0
vn -0.0 1.0 0.0
vn 0.0 -1.0 0.0
vn 0.0 -1.0 0.0
vn 0.0 -1.0 0.0
vn 0.0 -1.0 0.0
vn 0.0 -1.0 0.0
vn 0.0 -1.0 0.0
vn 1.0 0.0 0.0
vn 1.0 0.0 -0.0
vn 1.0 0.0 0.0
vn 1.0 0.0 0.0
vn 1.0 0.0 0.0
vn 1.0 0.0 0.0
vn -1.0 0.0 0.0
vn -1.0 0.0 -0.0
vn -1.0 0.0 0.0
vn -1.0 0.0 0.0
vn -1.0 0.0 0.0
vn -1.0 0.0 0.0
vn 0.0 -0.0 -1.0
vn 0.0 -0.0 -1.0
vn 0.0 -0.0 -1.0
vn 0.0 -0.0 -1.0
vn 0.0 -0.0 -1.0
vn 0.0 -0.0 -1.0
vn 0.0 0.0 1.0
vn 0.0 0.0 1.0
vn 0.0 0.0 1.0
vn 0.0 0.0 1.0
vn 0.0 0.0 1.0
vn 0.0 0.0 1.0

# prize_ball, 12 grouped triangles

usemtl prize_ball-tex.tex
o prize_ball
g prize_ball

f 1/1/1 2/2/2 3/3/3
f 1/4/4 3/5/5 4/6/6
f 5/7/7 6/8/8 7/9/9
f 5/10/10 7/11/11 8/12/12
f 9/13/13 10/14/14 11/15/15
f 9/16/16 11/17/17 12/18/18
f 13/19/19 14/20/20 15/21/21
f 13/22/22 15/23/23 16/24/24
f 17/25/25 18/26/26 19/27/27
f 17/28/28 19/29/29 20/30/30
f 21/31/31 22/32/32 23/33/33
f 21/34/34 23/35/35 24/36/36
